<svg width="22" height="22" viewBox="0 0 22 22" fill="none" xmlns="http://www.w3.org/2000/svg">
<g clip-path="url(#clip0_189_1039)">
<path d="M11 20.1667C16.0626 20.1667 20.1666 16.0626 20.1666 11C20.1666 5.9374 16.0626 1.83334 11 1.83334C5.93737 1.83334 1.83331 5.9374 1.83331 11C1.83331 16.0626 5.93737 20.1667 11 20.1667Z" stroke="#9C9C9C" stroke-width="2" stroke-linecap="round" stroke-linejoin="round"/>
<path d="M8.33252 8.25C8.54803 7.63737 8.97341 7.12077 9.53331 6.79171C10.0932 6.46265 10.7515 6.34236 11.3916 6.45216C12.0317 6.56195 12.6123 6.89473 13.0305 7.39157C13.4487 7.88841 13.6777 8.51723 13.6767 9.16667C13.6767 11 10.9267 11.9167 10.9267 11.9167" stroke="#9C9C9C" stroke-width="2" stroke-linecap="round" stroke-linejoin="round"/>
<path d="M11 15.5833H11.01" stroke="#9C9C9C" stroke-width="2" stroke-linecap="round" stroke-linejoin="round"/>
</g>
<defs>
<clipPath id="clip0_189_1039">
<rect width="22" height="22" fill="white"/>
</clipPath>
</defs>
</svg>
