<svg width="28" height="24" viewBox="0 0 28 24" fill="none" xmlns="http://www.w3.org/2000/svg">
<path d="M13.6288 6.22623L4.66704 14.362V23.1428C4.66704 23.3701 4.74897 23.5882 4.89482 23.7489C5.04067 23.9097 5.23849 24 5.44475 24L10.8917 23.9845C11.0973 23.9833 11.2941 23.8925 11.4391 23.7319C11.5841 23.5712 11.6655 23.3538 11.6655 23.1272V17.9993C11.6655 17.772 11.7475 17.5539 11.8933 17.3932C12.0392 17.2324 12.237 17.1421 12.4432 17.1421H15.5541C15.7604 17.1421 15.9582 17.2324 16.104 17.3932C16.2499 17.5539 16.3318 17.772 16.3318 17.9993V23.1235C16.3315 23.2363 16.3514 23.348 16.3903 23.4523C16.4293 23.5567 16.4865 23.6515 16.5588 23.7314C16.631 23.8113 16.7169 23.8746 16.8114 23.9179C16.9059 23.9611 17.0072 23.9834 17.1096 23.9834L22.5545 24C22.7608 24 22.9586 23.9097 23.1045 23.7489C23.2503 23.5882 23.3323 23.3701 23.3323 23.1428V14.3561L14.3725 6.22623C14.2671 6.13264 14.1359 6.08161 14.0006 6.08161C13.8653 6.08161 13.7341 6.13264 13.6288 6.22623ZM27.7847 11.756L23.7211 8.06394V0.642929C23.7211 0.472414 23.6597 0.308882 23.5503 0.18831C23.4409 0.0677371 23.2925 0 23.1378 0H20.4158C20.2611 0 20.1128 0.0677371 20.0034 0.18831C19.894 0.308882 19.8325 0.472414 19.8325 0.642929V4.53318L15.4807 0.586673C15.0631 0.207869 14.539 0.000757234 13.9982 0.000757234C13.4573 0.000757234 12.9333 0.207869 12.5157 0.586673L0.211684 11.756C0.15262 11.8098 0.103754 11.8759 0.0678782 11.9505C0.0320021 12.0251 0.00981906 12.1068 0.00259668 12.1909C-0.0046257 12.275 0.0032541 12.3598 0.0257858 12.4406C0.0483176 12.5213 0.0850596 12.5963 0.133913 12.6614L1.3734 14.3223C1.42212 14.3876 1.48205 14.4417 1.54975 14.4814C1.61745 14.5212 1.69159 14.5458 1.76794 14.5539C1.84429 14.562 1.92134 14.5534 1.99468 14.5287C2.06802 14.5039 2.13621 14.4635 2.19535 14.4096L13.6288 4.02956C13.7341 3.93597 13.8653 3.88494 14.0006 3.88494C14.1359 3.88494 14.2671 3.93597 14.3725 4.02956L25.8064 14.4096C25.8654 14.4635 25.9335 14.504 26.0067 14.5288C26.08 14.5537 26.1569 14.5623 26.2332 14.5544C26.3095 14.5464 26.3836 14.522 26.4513 14.4824C26.5191 14.4429 26.579 14.389 26.6278 14.3239L27.8673 12.663C27.9161 12.5976 27.9527 12.5221 27.975 12.4411C27.9973 12.36 28.0048 12.2748 27.9971 12.1906C27.9894 12.1063 27.9667 12.0245 27.9302 11.9499C27.8938 11.8753 27.8443 11.8094 27.7847 11.756Z" fill="white"/>
</svg>
